<svg width="190" height="32" viewBox="0 0 190 32" fill="none" xmlns="http://www.w3.org/2000/svg">
<path d="M17.696 32C16.736 32 15.7867 31.7227 14.848 31.168C13.9307 30.6347 12.7573 29.8027 11.328 28.672C10.2613 27.8187 9.34401 27.1253 8.57601 26.592C7.82935 26.08 7.00801 25.6427 6.11201 25.28C5.23735 24.9173 4.34135 24.736 3.42401 24.736C3.10401 24.736 2.85868 24.7467 2.68801 24.768L7.45601 2.592C6.02668 3.168 4.91735 4.05333 4.12801 5.248C3.36001 6.42133 2.97601 7.86133 2.97601 9.568C2.97601 10.3573 3.05068 10.912 3.20001 11.232C3.34935 11.5307 3.42401 11.7013 3.42401 11.744C2.27201 11.744 1.40801 11.5093 0.832014 11.04C0.277347 10.5493 1.39177e-05 9.74933 1.39177e-05 8.64C1.39177e-05 7.27467 0.554681 5.952 1.66401 4.672C2.79468 3.37067 4.23468 2.32533 5.98401 1.536C7.73335 0.725333 9.48268 0.32 11.232 0.32C11.5307 0.32 11.9573 0.341333 12.512 0.383999L7.58401 23.36C8.18135 23.5093 8.78935 23.7227 9.40801 24C10.048 24.2987 10.816 24.6933 11.712 25.184C13.0987 25.9307 14.2827 26.496 15.264 26.88C16.2453 27.2853 17.2693 27.488 18.336 27.488C19.296 27.488 20.192 27.3173 21.024 26.976C20.8533 28.5333 20.4693 29.76 19.872 30.656C19.296 31.552 18.5707 32 17.696 32ZM15.101 24.192C14.077 24.192 13.245 23.872 12.605 23.232C11.9863 22.592 11.677 21.632 11.677 20.352C11.677 19.8187 11.7623 19.1253 11.933 18.272L14.109 8H18.717L16.413 18.88C16.349 19.2 16.317 19.4987 16.317 19.776C16.317 20.6507 16.637 21.088 17.277 21.088C17.8743 21.088 18.3863 20.8427 18.813 20.352C19.2397 19.84 19.581 19.1467 19.837 18.272L22.013 8H26.621L24.317 18.88C24.2317 19.2 24.189 19.5413 24.189 19.904C24.189 20.3307 24.285 20.64 24.477 20.832C24.6903 21.0027 25.0317 21.088 25.501 21.088C26.0983 21.088 26.6103 20.832 27.037 20.32C27.485 19.808 27.837 19.1253 28.093 18.272H29.437C28.6477 20.576 27.6663 22.144 26.493 22.976C25.341 23.7867 24.1783 24.192 23.005 24.192C22.0877 24.192 21.3517 23.936 20.797 23.424C20.2637 22.912 19.9437 22.1547 19.837 21.152C19.1117 22.3253 18.3437 23.1253 17.533 23.552C16.7437 23.9787 15.933 24.192 15.101 24.192ZM32.6653 24.192C31.0866 24.192 29.8599 23.7867 28.9853 22.976C28.1106 22.144 27.6733 20.8533 27.6733 19.104C27.6733 17.632 27.9613 16.0107 28.5373 14.24C29.1346 12.4693 30.0733 10.944 31.3533 9.664C32.6546 8.36267 34.2973 7.712 36.2813 7.712C37.5613 7.712 38.4679 7.98933 39.0013 8.544C39.5559 9.09867 39.8333 9.80267 39.8333 10.656C39.8333 11.4027 39.6733 11.9787 39.3533 12.384C39.0333 12.7893 38.6279 12.992 38.1373 12.992C37.7746 12.992 37.4013 12.864 37.0173 12.608C37.2733 11.904 37.4013 11.2747 37.4013 10.72C37.4013 10.3147 37.3266 9.99467 37.1773 9.76C37.0279 9.52533 36.8039 9.408 36.5053 9.408C35.8653 9.408 35.2253 9.93067 34.5853 10.976C33.9453 12.0213 33.4226 13.2907 33.0173 14.784C32.6119 16.2773 32.4093 17.6213 32.4093 18.816C32.4093 19.8613 32.5906 20.576 32.9533 20.96C33.3159 21.3227 33.9026 21.504 34.7133 21.504C35.8653 21.504 36.8466 21.2373 37.6573 20.704C38.4893 20.1707 39.3959 19.36 40.3773 18.272H41.4653C39.0973 22.2187 36.1639 24.192 32.6653 24.192ZM60.8623 24.192C59.8383 24.192 58.9743 24 58.2703 23.616C57.5663 23.2107 57.0436 22.6987 56.7023 22.08C56.3609 21.44 56.1903 20.7787 56.1903 20.096C56.1903 19.392 56.3609 18.784 56.7023 18.272C57.0223 17.7387 57.4169 17.3547 57.8863 17.12C58.7183 15.6267 59.4436 14.1227 60.0623 12.608C60.6809 11.072 61.2676 9.41867 61.8223 7.648L66.5583 7.008C66.6649 9.73867 66.8463 12.6933 67.1023 15.872C67.2089 17.152 67.2623 18.08 67.2623 18.656C67.2623 19.9573 66.9316 21.024 66.2703 21.856C65.6089 22.688 64.7876 23.2853 63.8063 23.648C62.8463 24.0107 61.8649 24.192 60.8623 24.192ZM59.8383 21.664C60.6276 21.664 61.2889 21.4293 61.8223 20.96C62.3556 20.4907 62.6223 19.7333 62.6223 18.688C62.6223 18.048 62.5583 17.152 62.4303 16C62.2169 13.568 62.0783 11.936 62.0143 11.104C61.5023 12.7893 60.6383 14.8053 59.4223 17.152C59.9129 17.408 60.1583 17.7813 60.1583 18.272C60.1583 18.6773 60.0196 19.04 59.7423 19.36C59.4863 19.68 59.1556 19.84 58.7503 19.84C58.3023 19.84 58.0143 19.7013 57.8863 19.424C57.8863 20.192 58.0356 20.7573 58.3343 21.12C58.6543 21.4827 59.1556 21.664 59.8383 21.664ZM86.6608 24.544C85.8074 24.544 85.0608 24.3627 84.4208 24C83.8021 23.6587 83.4928 23.0507 83.4928 22.176C83.4928 21.6213 83.6314 21.0027 83.9088 20.32C84.2928 20.7467 84.6448 21.0453 84.9648 21.216C85.3061 21.3867 85.6688 21.472 86.0528 21.472C87.1194 21.472 87.9088 20.8747 88.4208 19.68C88.9541 18.4853 89.2208 17.1627 89.2208 15.712C89.2208 13.0027 88.2074 11.648 86.1808 11.648C85.6048 11.648 85.1141 11.68 84.7088 11.744L82.0848 24H77.4768L81.8288 3.648L86.5648 3.008L85.0608 10.112H85.2528C86.0634 10.112 86.8208 9.856 87.5248 9.344C88.2288 8.81067 88.7941 8.14933 89.2208 7.36C89.6474 6.54933 89.8608 5.73867 89.8608 4.928C89.8608 3.94667 89.5088 3.12533 88.8048 2.464C88.1221 1.80267 87.0661 1.472 85.6368 1.472C84.3354 1.472 83.0661 1.77066 81.8288 2.368C80.5914 2.944 79.5781 3.81867 78.7888 4.992C78.0208 6.16533 77.6368 7.584 77.6368 9.248C77.6368 10.0373 77.7114 10.592 77.8608 10.912C78.0101 11.2107 78.0848 11.3813 78.0848 11.424C76.9541 11.424 76.1008 11.2 75.5248 10.752C74.9488 10.2827 74.6608 9.52533 74.6608 8.48C74.6608 7.02933 75.2048 5.65333 76.2928 4.352C77.3808 3.05067 78.8208 2.00533 80.6128 1.216C82.4048 0.405332 84.2928 -1.90735e-06 86.2768 -1.90735e-06C87.7701 -1.90735e-06 89.0288 0.234665 90.0528 0.703999C91.0768 1.17333 91.8341 1.792 92.3248 2.56C92.8368 3.328 93.0928 4.17067 93.0928 5.088C93.0928 6.06933 92.8154 7.01867 92.2608 7.936C91.7061 8.85333 90.9168 9.6 89.8928 10.176C91.1728 10.4107 92.1221 11.008 92.7408 11.968C93.3594 12.9067 93.6688 14.0267 93.6688 15.328C93.6688 16.544 93.4341 17.8667 92.9648 19.296C92.5168 20.7253 91.7594 21.9627 90.6928 23.008C89.6474 24.032 88.3034 24.544 86.6608 24.544ZM96.9528 8H101.561L101.145 9.984C101.87 9.344 102.521 8.85333 103.097 8.512C103.694 8.17067 104.334 8 105.017 8C105.699 8 106.233 8.23467 106.617 8.704C107.022 9.17333 107.225 9.73867 107.225 10.4C107.225 11.0187 107.022 11.5627 106.617 12.032C106.211 12.5013 105.646 12.736 104.921 12.736C104.451 12.736 104.131 12.6293 103.961 12.416C103.811 12.1813 103.694 11.8507 103.609 11.424C103.545 11.1467 103.481 10.944 103.417 10.816C103.353 10.688 103.235 10.624 103.065 10.624C102.617 10.624 102.233 10.72 101.913 10.912C101.614 11.0827 101.219 11.392 100.729 11.84L98.1688 24H93.5608L96.9528 8ZM135.204 24.192C133.902 24.192 132.942 23.8507 132.324 23.168C131.726 22.464 131.428 21.6 131.428 20.576C131.428 20.128 131.481 19.6267 131.588 19.072C131.694 18.496 131.801 17.9413 131.908 17.408C132.036 16.8747 132.121 16.5333 132.164 16.384C132.334 15.6373 132.494 14.9013 132.644 14.176C132.793 13.4507 132.868 12.864 132.868 12.416C132.868 11.328 132.484 10.784 131.716 10.784C131.161 10.784 130.67 11.0613 130.244 11.616C129.817 12.1493 129.476 12.8533 129.22 13.728L127.044 24H122.436L125.828 8H130.436L130.084 9.664C131.15 8.46933 132.398 7.872 133.828 7.872C134.916 7.872 135.78 8.17067 136.42 8.768C137.06 9.36533 137.38 10.272 137.38 11.488C137.38 12.1067 137.305 12.8 137.156 13.568C137.006 14.3147 136.793 15.232 136.516 16.32C136.345 16.9813 136.185 17.632 136.036 18.272C135.908 18.8907 135.844 19.3813 135.844 19.744C135.844 20.1707 135.94 20.5013 136.132 20.736C136.324 20.9707 136.654 21.088 137.124 21.088C137.764 21.088 138.276 20.864 138.66 20.416C139.044 19.9467 139.428 19.232 139.812 18.272H141.156C140.366 20.6187 139.449 22.1973 138.404 23.008C137.38 23.7973 136.313 24.192 135.204 24.192ZM143.648 24.192C142.432 24.192 141.419 23.776 140.608 22.944C139.797 22.112 139.392 20.8107 139.392 19.04C139.392 17.4613 139.701 15.808 140.32 14.08C140.96 12.3307 141.899 10.8587 143.136 9.664C144.395 8.448 145.888 7.84 147.616 7.84C148.491 7.84 149.141 7.98933 149.568 8.288C149.995 8.58667 150.208 8.98133 150.208 9.472V9.6L151.776 2.24L156.512 1.6L152.832 18.88C152.747 19.2 152.704 19.5413 152.704 19.904C152.704 20.3307 152.8 20.64 152.992 20.832C153.205 21.0027 153.547 21.088 154.016 21.088C154.613 21.088 155.125 20.832 155.552 20.32C156 19.808 156.352 19.1253 156.608 18.272H157.952C156.651 22.0907 154.507 24 151.52 24C150.645 24 149.931 23.7653 149.376 23.296C148.843 22.8267 148.512 22.144 148.384 21.248C147.829 22.1013 147.157 22.8053 146.368 23.36C145.6 23.9147 144.693 24.192 143.648 24.192ZM145.728 21.088C146.24 21.088 146.752 20.8533 147.264 20.384C147.797 19.9147 148.16 19.264 148.352 18.432V18.272L149.92 10.944C149.728 10.1973 149.291 9.824 148.608 9.824C147.755 9.824 146.987 10.3253 146.304 11.328C145.621 12.3093 145.088 13.504 144.704 14.912C144.32 16.2987 144.128 17.5253 144.128 18.592C144.128 19.6587 144.277 20.3413 144.576 20.64C144.896 20.9387 145.28 21.088 145.728 21.088ZM160.461 24.192C159.245 24.192 158.231 23.776 157.421 22.944C156.61 22.112 156.205 20.8107 156.205 19.04C156.205 17.4613 156.514 15.808 157.133 14.08C157.773 12.3307 158.711 10.8587 159.949 9.664C161.207 8.448 162.701 7.84 164.429 7.84C165.303 7.84 165.954 7.98933 166.381 8.288C166.807 8.58667 167.021 8.98133 167.021 9.472V9.696L167.373 8H171.981L169.677 18.88C169.591 19.2 169.549 19.5413 169.549 19.904C169.549 20.8213 169.986 21.28 170.861 21.28C171.458 21.28 171.97 21.0027 172.397 20.448C172.845 19.8933 173.197 19.168 173.453 18.272H174.797C174.007 20.576 173.026 22.144 171.853 22.976C170.701 23.7867 169.538 24.192 168.365 24.192C167.469 24.192 166.743 23.9467 166.189 23.456C165.655 22.944 165.335 22.208 165.229 21.248C164.61 22.1227 163.917 22.8373 163.149 23.392C162.402 23.9253 161.506 24.192 160.461 24.192ZM162.541 21.088C163.074 21.088 163.597 20.8427 164.109 20.352C164.642 19.84 165.005 19.1467 165.197 18.272L166.733 11.04C166.733 10.7627 166.626 10.496 166.413 10.24C166.199 9.96267 165.869 9.824 165.421 9.824C164.567 9.824 163.799 10.3253 163.117 11.328C162.434 12.3093 161.901 13.504 161.517 14.912C161.133 16.2987 160.941 17.5253 160.941 18.592C160.941 19.6587 161.09 20.3413 161.389 20.64C161.709 20.9387 162.093 21.088 162.541 21.088ZM178.136 24.128C176.558 24.128 175.31 23.7227 174.392 22.912C173.475 22.1013 173.016 20.8213 173.016 19.072C173.016 17.6 173.304 15.9893 173.88 14.24C174.456 12.4693 175.395 10.944 176.696 9.664C177.998 8.36267 179.662 7.712 181.688 7.712C184.206 7.712 185.56 9.152 185.752 12.032C186.222 11.9253 186.638 11.6693 187 11.264C187.363 10.8373 187.704 10.3573 188.024 9.824H189.048C188.472 10.976 187.96 11.8827 187.512 12.544C187.064 13.184 186.478 13.7067 185.752 14.112C185.624 16.1173 185.208 17.8773 184.504 19.392C183.822 20.9067 182.926 22.08 181.816 22.912C180.707 23.7227 179.48 24.128 178.136 24.128ZM179.416 21.248C180.206 21.248 180.942 20.608 181.624 19.328C182.307 18.048 182.776 16.4693 183.032 14.592C182.52 14.4 182.264 13.92 182.264 13.152C182.264 12.32 182.563 11.7653 183.16 11.488C183.118 10.8053 183 10.336 182.808 10.08C182.638 9.80267 182.35 9.664 181.944 9.664C181.24 9.664 180.568 10.176 179.928 11.2C179.288 12.2027 178.766 13.4293 178.36 14.88C177.976 16.3093 177.784 17.568 177.784 18.656C177.784 19.68 177.902 20.3733 178.136 20.736C178.371 21.0773 178.798 21.248 179.416 21.248Z" fill="black"/>
<path d="M44.2105 24.192C42.9945 24.192 41.9812 23.776 41.1705 22.944C40.3598 22.112 39.9545 20.8107 39.9545 19.04C39.9545 17.4613 40.2638 15.808 40.8825 14.08C41.5225 12.3307 42.4612 10.8587 43.6985 9.664C44.9572 8.448 46.4505 7.84 48.1785 7.84C49.0532 7.84 49.7038 7.98933 50.1305 8.288C50.5572 8.58667 50.7705 8.98133 50.7705 9.472V9.696L51.1225 8H55.7305L53.4265 18.88C53.3412 19.2 53.2985 19.5413 53.2985 19.904C53.2985 20.8213 53.7358 21.28 54.6105 21.28C55.2078 21.28 55.7198 21.0027 56.1465 20.448C56.5945 19.8933 56.9465 19.168 57.2025 18.272H58.5465C57.7572 20.576 56.7758 22.144 55.6025 22.976C54.4505 23.7867 53.2878 24.192 52.1145 24.192C51.2185 24.192 50.4932 23.9467 49.9385 23.456C49.4052 22.944 49.0852 22.208 48.9785 21.248C48.3598 22.1227 47.6665 22.8373 46.8985 23.392C46.1518 23.9253 45.2558 24.192 44.2105 24.192ZM46.2905 21.088C46.8238 21.088 47.3465 20.8427 47.8585 20.352C48.3918 19.84 48.7545 19.1467 48.9465 18.272L50.4825 11.04C50.4825 10.7627 50.3758 10.496 50.1625 10.24C49.9492 9.96267 49.6185 9.824 49.1705 9.824C48.3172 9.824 47.5492 10.3253 46.8665 11.328C46.1838 12.3093 45.6505 13.504 45.2665 14.912C44.8825 16.2987 44.6905 17.5253 44.6905 18.592C44.6905 19.6587 44.8398 20.3413 45.1385 20.64C45.4585 20.9387 45.8425 21.088 46.2905 21.088ZM110.648 24.192C109.432 24.192 108.419 23.776 107.608 22.944C106.797 22.112 106.392 20.8107 106.392 19.04C106.392 17.4613 106.701 15.808 107.32 14.08C107.96 12.3307 108.899 10.8587 110.136 9.664C111.395 8.448 112.888 7.84 114.616 7.84C115.491 7.84 116.141 7.98933 116.568 8.288C116.995 8.58667 117.208 8.98133 117.208 9.472V9.696L117.56 8H122.168L119.864 18.88C119.779 19.2 119.736 19.5413 119.736 19.904C119.736 20.8213 120.173 21.28 121.048 21.28C121.645 21.28 122.157 21.0027 122.584 20.448C123.032 19.8933 123.384 19.168 123.64 18.272H124.984C124.195 20.576 123.213 22.144 122.04 22.976C120.888 23.7867 119.725 24.192 118.552 24.192C117.656 24.192 116.931 23.9467 116.376 23.456C115.843 22.944 115.523 22.208 115.416 21.248C114.797 22.1227 114.104 22.8373 113.336 23.392C112.589 23.9253 111.693 24.192 110.648 24.192ZM112.728 21.088C113.261 21.088 113.784 20.8427 114.296 20.352C114.829 19.84 115.192 19.1467 115.384 18.272L116.92 11.04C116.92 10.7627 116.813 10.496 116.6 10.24C116.387 9.96267 116.056 9.824 115.608 9.824C114.755 9.824 113.987 10.3253 113.304 11.328C112.621 12.3093 112.088 13.504 111.704 14.912C111.32 16.2987 111.128 17.5253 111.128 18.592C111.128 19.6587 111.277 20.3413 111.576 20.64C111.896 20.9387 112.28 21.088 112.728 21.088Z" fill="#EAB325"/>
</svg>
