<?xml version="1.0" encoding="UTF-8"?>
<svg version="1.1" xmlns="http://www.w3.org/2000/svg" width="1072" height="740">
<path d="M0 0 C353.76 0 707.52 0 1072 0 C1072 244.2 1072 488.4 1072 740 C718.24 740 364.48 740 0 740 C0 495.8 0 251.6 0 0 Z " fill="#FEFEFE" transform="translate(0,0)"/>
<path d="M0 0 C0.71510742 0.10763672 1.43021484 0.21527344 2.16699219 0.32617188 C27.12862013 4.36290842 51.46412716 16.10640854 71 32 C71.55929199 32.45246094 72.11858398 32.90492188 72.69482422 33.37109375 C105.87295767 60.38953512 126.82797456 98.35806404 131.72265625 141.01171875 C132.76859739 156.05264696 132.26147686 171.09363679 130 186 C129.89236328 186.71510742 129.78472656 187.43021484 129.67382812 188.16699219 C125.27621428 215.36014674 111.85112348 241.24302852 94 262 C93.56220215 262.5161084 93.1244043 263.0322168 92.67333984 263.56396484 C72.01482263 287.72807705 43.76551917 304.98261196 13 313 C11.59814453 313.38285156 11.59814453 313.38285156 10.16796875 313.7734375 C-30.96445992 324.2246961 -75.07326541 316.78667817 -111.359375 295.27734375 C-146.64288192 273.61770403 -173.8324476 237.672558 -183.8046875 197.29736328 C-193.52170355 154.53314939 -187.13559922 110.24767656 -164.13232422 72.77539062 C-161.05150102 67.94491493 -157.60052369 63.45015222 -154 59 C-153.58524414 58.47841309 -153.17048828 57.95682617 -152.74316406 57.41943359 C-126.12204521 24.05790354 -87.39157295 3.14329526 -44.98828125 -1.72265625 C-29.94735304 -2.76859739 -14.90636321 -2.26147686 0 0 Z " fill="#000000" transform="translate(538,96)"/>
<path d="M0 0 C7.69740609 6.45072368 12.03856775 13.55710951 15.19140625 23.015625 C15.19140625 28.295625 15.19140625 33.575625 15.19140625 39.015625 C-7.90859375 39.015625 -31.00859375 39.015625 -54.80859375 39.015625 C-51.33498402 50.59432411 -48.02442916 58.11655277 -37.69921875 64.2734375 C-29.48041371 68.21736072 -19.635436 68.38033279 -10.83984375 66.3203125 C-5.13330266 64.22439154 -0.44509659 60.90096257 4.19140625 57.015625 C5.22672351 57.91590088 6.2443479 58.83655535 7.25390625 59.765625 C7.82238281 60.27609375 8.39085937 60.7865625 8.9765625 61.3125 C10.19140625 63.015625 10.19140625 63.015625 10.05078125 65.03515625 C7.13407506 71.75683825 -0.50925673 74.46306897 -6.84375 77.03515625 C-18.70389848 80.95728704 -31.42534563 79.86432178 -42.80859375 75.015625 C-52.75678173 69.63623446 -60.67736866 61.3989901 -64.68359375 50.703125 C-66.05543113 45.50974064 -66.12195247 40.29390196 -66.18359375 34.953125 C-66.1976123 34.11418701 -66.21163086 33.27524902 -66.22607422 32.41088867 C-66.14449153 21.73087789 -62.17582243 11.95997504 -54.9921875 4.00390625 C-40.21487663 -9.75839741 -16.59929318 -11.72801243 0 0 Z " fill="#050505" transform="translate(367.80859375,510.984375)"/>
<path d="M0 0 C1.06412109 -0.01611328 2.12824219 -0.03222656 3.22460938 -0.04882812 C18.31450207 -0.05803489 30.66799967 5.02763302 41.6875 15.3125 C39.8019852 19.59609673 37.32784299 21.46353592 33.6875 24.3125 C33.10742188 23.84199219 32.52734375 23.37148438 31.9296875 22.88671875 C19.08381583 12.64817747 6.73012368 10.93143642 -9.3125 12.3125 C-16.41527459 13.79391296 -22.42648158 17.15845941 -28.3125 21.3125 C-29.158125 21.869375 -30.00375 22.42625 -30.875 23 C-39.1438939 30.84484805 -44.65475085 41.5973237 -45.515625 53.00390625 C-45.75591231 67.72150427 -41.55707306 79.44053133 -31.55078125 90.23828125 C-21.55914671 99.49754467 -9.15762113 102.71537739 4.17578125 102.59375 C15.51501936 101.6856019 26.1551817 96.74387401 34.6875 89.3125 C36.9975 91.6225 39.3075 93.9325 41.6875 96.3125 C37.55995433 104.56759134 30.15625515 108.27409166 21.6875 111.3125 C5.24651116 116.24085397 -11.81194456 115.95941573 -27.5 108.625 C-42.12710352 100.73406258 -50.78763854 89.80265769 -56.4375 74.28515625 C-60.6384012 60.01334459 -59.19127159 43.95978876 -53.02734375 30.5078125 C-44.98905345 16.13293123 -32.44421484 6.07238487 -16.80859375 1.2265625 C-11.25319683 -0.111924 -5.6855339 -0.01703276 0 0 Z " fill="#040404" transform="translate(599.3125,475.6875)"/>
<path d="M0 0 C11.22621047 5.68884429 18.49344034 13.21783578 22.87890625 25.05859375 C23.11867188 25.80496094 23.3584375 26.55132813 23.60546875 27.3203125 C23.79753906 27.91199219 23.98960937 28.50367188 24.1875 29.11328125 C26.57040546 41.69591288 24.55410641 54.24295074 17.85546875 65.1328125 C12.82303822 72.11246489 6.58159287 77.12394365 -1.39453125 80.3203125 C-2.12027344 80.619375 -2.84601563 80.9184375 -3.59375 81.2265625 C-13.98860235 84.93778251 -25.35092462 84.57567593 -35.61328125 80.64453125 C-47.34773572 75.0574806 -54.65285979 67.22501541 -59.44921875 55.25 C-63.18811893 43.66249946 -62.96644254 30.204574 -57.39453125 19.3203125 C-46.27634233 -1.10689259 -21.44499344 -8.65058974 0 0 Z M-43.78125 20.07421875 C-49.7660396 28.40655294 -50.60590105 37.26385463 -49.39453125 47.3203125 C-46.36634517 58.17958635 -41.49046626 64.40851369 -31.89453125 70.12109375 C-24.15012581 73.83598823 -14.49221239 73.33393944 -6.51953125 70.6328125 C2.12454961 67.04868141 6.52790888 61.55141162 10.60546875 53.3203125 C13.99885822 44.88531581 13.52288695 35.17376773 10.6484375 26.671875 C6.95261994 18.33898297 0.73855156 12.39170106 -7.64453125 9.0078125 C-21.67505002 4.33097291 -34.44343704 8.7901654 -43.78125 20.07421875 Z " fill="#050505" transform="translate(459.39453125,506.6796875)"/>
<path d="M0 0 C4.59182877 -0.9198258 8.4287065 -1.12041507 13 0 C16.96010493 3.55782514 19.75108129 7.60204394 22.66943359 12.02783203 C24.79478465 15.17803127 27.15332105 18.13835701 29.5 21.125 C32.01811201 24.40345103 34.52726634 27.68717093 37 31 C40.79540003 29.73486666 41.49383706 28.29444127 43.8125 25.0625 C44.38629395 24.29341309 44.38629395 24.29341309 44.97167969 23.50878906 C47.49120352 20.13172238 49.88783398 16.69071309 52.24609375 13.19921875 C61.02942168 0.59726807 61.02942168 0.59726807 66.7890625 -1.1484375 C70.05604734 -1.12708466 72.85123812 -0.84734124 76 0 C74.38860208 3.61707406 72.18105107 6.5097127 69.75 9.625 C69.32251465 10.17478516 68.8950293 10.72457031 68.45458984 11.29101562 C67.50274989 12.51447411 66.54937533 13.73673974 65.59472656 14.95800781 C63.84766514 17.19505952 62.10702182 19.43701089 60.3671875 21.6796875 C57.94678234 24.79802021 55.52587157 27.91595097 53.1015625 31.03125 C52.30153809 32.06765625 52.30153809 32.06765625 51.48535156 33.125 C50.21990797 34.72240414 48.87867264 36.25928246 47.5234375 37.78125 C45.82789536 39.81674057 45.82789536 39.81674057 45.95703125 41.9296875 C47.48715325 44.96700832 49.54511069 47.50710568 51.6875 50.125 C52.68545565 51.37064546 53.68282173 52.61676341 54.6796875 53.86328125 C55.21432617 54.5279541 55.74896484 55.19262695 56.29980469 55.87744141 C59.33414895 59.66557883 62.32441176 63.48784289 65.3125 67.3125 C65.88637451 68.04033691 66.46024902 68.76817383 67.05151367 69.51806641 C70.96090409 74.51896271 74.54939022 79.67278395 78 85 C73.24704267 86.17018098 68.6358493 86.83362466 64 85 C58.87748636 80.80004986 55.31399451 74.93914251 51.66943359 69.47705078 C49.57531081 66.36986011 47.35259183 63.37180163 45.11206055 60.36938477 C43.04679324 57.59953275 41.02378298 54.80025482 39 52 C35.19010035 53.26996655 34.45884172 54.75904244 32.125 58 C31.3358067 59.08288583 30.54536292 60.16486105 29.75390625 61.24609375 C29.32094238 61.84019043 28.88797852 62.43428711 28.44189453 63.04638672 C25.70195465 66.75871299 22.8755466 70.40546134 20.0625 74.0625 C18.94828991 75.51100475 17.83495217 76.96018111 16.72265625 78.41015625 C16.00734741 79.34033569 16.00734741 79.34033569 15.27758789 80.28930664 C14.13295568 81.82197201 13.06109465 83.40835802 12 85 C8.7421875 85.29296875 8.7421875 85.29296875 4.875 85.1875 C2.95300781 85.14689453 2.95300781 85.14689453 0.9921875 85.10546875 C0.00476563 85.07066406 -0.98265625 85.03585937 -2 85 C0.65974725 80.20868226 3.99194213 76.03920116 7.375 71.75 C8.62809575 70.1488221 9.88068705 68.54724929 11.1328125 66.9453125 C11.7712207 66.1296582 12.40962891 65.31400391 13.06738281 64.47363281 C16.14380846 60.53599453 19.20252503 56.58507392 22.25 52.625 C22.79833496 51.91827148 23.34666992 51.21154297 23.91162109 50.48339844 C24.42031738 49.82114258 24.92901367 49.15888672 25.453125 48.4765625 C25.89817383 47.89986816 26.34322266 47.32317383 26.80175781 46.72900391 C28.07417648 44.89296703 29.04811493 43.01819534 30 41 C23.70243456 32.78704599 17.36922581 24.60294371 10.99951172 16.44580078 C9.32769838 14.3012579 7.66282648 12.151516 6 10 C5.42056641 9.2570166 4.84113281 8.5140332 4.24414062 7.74853516 C3.41946289 6.67611572 3.41946289 6.67611572 2.578125 5.58203125 C1.8341748 4.62067261 1.8341748 4.62067261 1.07519531 3.63989258 C0 2 0 2 0 0 Z " fill="#060606" transform="translate(757,504)"/>
<path d="M0 0 C3.96 0 7.92 0 12 0 C13.95365306 1.95365306 13.12022124 4.93399752 13.12442017 7.53401184 C13.12082489 8.47484116 13.11722961 9.41567047 13.11352539 10.38500977 C13.11367142 11.37026642 13.11381744 12.35552307 13.1139679 13.37063599 C13.11326832 16.64424807 13.10547385 19.91780404 13.09765625 23.19140625 C13.09579223 25.45442168 13.09436825 27.71743751 13.09336853 29.98045349 C13.0895421 35.94978948 13.07971075 41.91910132 13.06866455 47.88842773 C13.05665917 55.04363251 13.05204879 62.19884535 13.04621124 69.35405731 C13.03649906 80.23605503 13.01734337 91.1179997 13 102 C33.46 102 53.92 102 75 102 C75 105.63 75 109.26 75 113 C50.25 113 25.5 113 0 113 C0 75.71 0 38.42 0 0 Z " fill="#090909" transform="translate(219,476)"/>
<path d="M0 0 C3.63 0 7.26 0 11 0 C11.33 4.62 11.66 9.24 12 14 C12.94875 12.783125 13.8975 11.56625 14.875 10.3125 C19.60795135 4.87587156 25.87139277 1.31858631 33 0 C34.74886981 -0.06624507 36.50002748 -0.08552595 38.25 -0.0625 C39.8175 -0.041875 41.385 -0.02125 43 0 C43 3.63 43 7.26 43 11 C42.17757812 11.07476563 41.35515625 11.14953125 40.5078125 11.2265625 C31.82997171 12.24866384 24.24750146 14.06127779 18.34375 20.92578125 C13.0874722 28.79491807 12.68452685 36.62689705 12.5859375 45.83984375 C12.56657135 46.96193741 12.5472052 48.08403107 12.5272522 49.24012756 C12.46771984 52.8058423 12.42117622 56.37158978 12.375 59.9375 C12.33679601 62.36264388 12.29774288 64.78777455 12.2578125 67.21289062 C12.16203983 73.14181908 12.07791146 79.07081102 12 85 C8.04 85 4.08 85 0 85 C0 56.95 0 28.9 0 0 Z " fill="#020202" transform="translate(662,504)"/>
<path d="M0 0 C6.29843947 6.58473217 8.60694529 11.73056232 9.75 20.875 C-9.72 20.875 -29.19 20.875 -49.25 20.875 C-46.78814729 9.79666279 -43.54836374 3.45698781 -34.25 -3.125 C-23.32464485 -9.68021309 -10.03207251 -6.55943202 0 0 Z " fill="#FBFBFB" transform="translate(362.25,520.125)"/>
<path d="M0 0 C3.96 0 7.92 0 12 0 C12 28.05 12 56.1 12 85 C8.04 85 4.08 85 0 85 C0 56.95 0 28.9 0 0 Z " fill="#080808" transform="translate(853,504)"/>
<path d="M0 0 C3.96 0 7.92 0 12 0 C12 28.05 12 56.1 12 85 C8.04 85 4.08 85 0 85 C0 56.95 0 28.9 0 0 Z " fill="#070707" transform="translate(725,504)"/>
<path d="M0 0 C1.65 0 3.3 0 5 0 C5.33 1.32 5.66 2.64 6 4 C6.598125 3.34 7.19625 2.68 7.8125 2 C12.48708343 -0.93307196 16.61944101 -0.74880089 22 0 C26.2667986 1.32309901 28.6825446 3.59300589 31.4375 7.125 C33.65704943 11.63165037 33.88100825 16.09699758 33 21 C31.2737109 25.34877936 29.05859566 28.21220788 25.3125 31 C19.69353961 32.69628993 14.32029572 33.0891184 8.9375 30.5625 C7 29 7 29 6 28 C5.67 33.28 5.34 38.56 5 44 C3.35 43.67 1.7 43.34 0 43 C0 28.81 0 14.62 0 0 Z " fill="#101010" transform="translate(878,624)"/>
<path d="M0 0 C1.65 0 3.3 0 5 0 C5.33 5.28 5.66 10.56 6 16 C7.65 15.01 9.3 14.02 11 13 C16.1461275 12.1574924 21.31574398 12.23574047 26 14.6875 C29.08713889 17.06716956 30.32380447 18.53488234 32 22 C32.3984375 25.15625 32.3984375 25.15625 32.375 28.5 C32.38660156 30.15515625 32.38660156 30.15515625 32.3984375 31.84375 C31.79761302 36.60322232 29.99644033 39.12507679 26.4375 42.25 C21.54815696 45.76029757 16.89798422 45.6543873 11 45 C7.8125 43 7.8125 43 6 41 C5.67 42.32 5.34 43.64 5 45 C3.35 45 1.7 45 0 45 C0 30.15 0 15.3 0 0 Z " fill="#090909" transform="translate(615,611)"/>
<path d="M0 0 C3.40920514 2.411389 5.69634878 5.08019755 7.5625 8.8125 C8.09089495 15.03130209 8.28743456 20.54621321 4.5625 25.8125 C-0.58259661 30.57171437 -4.82517213 31.22837119 -11.640625 31.15625 C-15.94561418 30.62714519 -18.5131742 28.94511112 -21.4375 25.8125 C-25.22208232 20.68500138 -25.25192779 14.95273647 -24.4375 8.8125 C-19.5808941 -1.4610894 -10.18771467 -3.51939234 0 0 Z " fill="#F9F9F9" transform="translate(862.4375,625.1875)"/>
<path d="M0 0 C1.65 0 3.3 0 5 0 C7.84404962 6.89990357 10.39778348 13.85561206 12.75 20.9375 C13.22373047 22.33452148 13.22373047 22.33452148 13.70703125 23.75976562 C14.00480469 24.65244141 14.30257812 25.54511719 14.609375 26.46484375 C15.0110791 27.66548462 15.0110791 27.66548462 15.42089844 28.89038086 C16 31 16 31 16 34 C16.66 34 17.32 34 18 34 C18.23460937 32.78441406 18.46921875 31.56882812 18.7109375 30.31640625 C20.11611101 23.99312547 22.38456475 18.00417857 24.625 11.9375 C25.04523437 10.78572266 25.46546875 9.63394531 25.8984375 8.44726562 C26.92728295 5.62963206 27.96123455 2.81398816 29 0 C30.65 0 32.3 0 34 0 C35.57262273 4.35779234 37.13902779 8.71774997 38.69970703 13.07983398 C39.23152998 14.56351941 39.76504836 16.04659825 40.30029297 17.52905273 C41.06924592 19.65972292 41.83207986 21.7924985 42.59375 23.92578125 C42.83436157 24.58838455 43.07497314 25.25098785 43.32287598 25.93367004 C44.32990715 28.77063085 45 30.96326217 45 34 C45.66 34 46.32 34 47 34 C47.25136719 32.7625 47.50273438 31.525 47.76171875 30.25 C49.07319344 24.37311955 50.8934287 18.70300284 52.8125 13 C53.3084668 11.42798828 53.3084668 11.42798828 53.81445312 9.82421875 C54.15025391 8.83035156 54.48605469 7.83648438 54.83203125 6.8125 C55.27639526 5.46091797 55.27639526 5.46091797 55.72973633 4.08203125 C57 2 57 2 59.63549805 1.19921875 C60.41578369 1.13347656 61.19606934 1.06773437 62 1 C60.30808566 9.9589922 57.29557311 18.44717762 54.375 27.0625 C53.85374655 28.61118679 53.33290964 30.16001384 52.8125 31.70898438 C51.54646623 35.47429156 50.27480038 39.2376523 49 43 C47.02 43 45.04 43 43 43 C42.50802124 41.55379272 42.50802124 41.55379272 42.00610352 40.07836914 C40.79210084 36.51225214 39.57425511 32.94745776 38.35522461 29.38305664 C37.8274762 27.83816948 37.3007803 26.29292236 36.77514648 24.74731445 C36.02081215 22.52981324 35.26274126 20.3136207 34.50390625 18.09765625 C34.26845596 17.4028566 34.03300568 16.70805695 33.79042053 15.99220276 C32.84781954 12.74032125 32.84781954 12.74032125 31 10 C30.67201416 10.96413818 30.34402832 11.92827637 30.00610352 12.92163086 C28.79210084 16.48774786 27.57425511 20.05254224 26.35522461 23.61694336 C25.8274762 25.16183052 25.3007803 26.70707764 24.77514648 28.25268555 C24.02081215 30.47018676 23.26274126 32.6863793 22.50390625 34.90234375 C22.26845596 35.5971434 22.03300568 36.29194305 21.79042053 37.00779724 C20.11387171 41.88612829 20.11387171 41.88612829 19 43 C17.33382885 43.04063832 15.66611905 43.042721 14 43 C12.00229719 37.19891998 10.0085681 31.39649575 8.01855469 25.59277344 C7.34061755 23.61746091 6.66158445 21.64252417 5.98144531 19.66796875 C5.00559643 16.83430843 4.0336609 13.99933237 3.0625 11.1640625 C2.75626709 10.27756012 2.45003418 9.39105774 2.13452148 8.47769165 C1.85423096 7.65699188 1.57394043 6.83629211 1.28515625 5.99072266 C0.91209351 4.9048436 0.91209351 4.9048436 0.53149414 3.79702759 C0 2 0 2 0 0 Z " fill="#0D0D0D" transform="translate(512,613)"/>
<path d="M0 0 C4.85978996 2.29735525 7.59883576 5.19767151 10 10 C10 12.64 10 15.28 10 18 C1.42 18 -7.16 18 -16 18 C-12.86150333 24.49978352 -12.86150333 24.49978352 -10.1875 26.4375 C-3.95956737 28.03896839 0.45077142 26.71798951 6 24 C6.66 25.32 7.32 26.64 8 28 C2.33631105 32.49189124 -2.95753029 32.68947256 -10 32 C-14.26960665 30.70428756 -16.6902784 28.39707898 -19.4375 24.875 C-21.66352708 20.38439992 -21.77094431 15.89313636 -21 11 C-19.66736065 7.06197586 -17.45049616 4.42852074 -14.4375 1.5625 C-9.55997025 -0.65455898 -5.27273777 -0.77008689 0 0 Z " fill="#101010" transform="translate(937,624)"/>
<path d="M0 0 C4.85978996 2.29735525 7.59883576 5.19767151 10 10 C10 12.64 10 15.28 10 18 C1.42 18 -7.16 18 -16 18 C-12.86150333 24.49978352 -12.86150333 24.49978352 -10.1875 26.4375 C-3.95956737 28.03896839 0.45077142 26.71798951 6 24 C6.66 25.32 7.32 26.64 8 28 C2.33631105 32.49189124 -2.95753029 32.68947256 -10 32 C-14.26960665 30.70428756 -16.6902784 28.39707898 -19.4375 24.875 C-21.66352708 20.38439992 -21.77094431 15.89313636 -21 11 C-19.66736065 7.06197586 -17.45049616 4.42852074 -14.4375 1.5625 C-9.55997025 -0.65455898 -5.27273777 -0.77008689 0 0 Z " fill="#101010" transform="translate(739,624)"/>
<path d="M0 0 C4.55605376 2.07093353 6.8446645 4.7432782 9.3359375 8.92578125 C10 11 10 11 10 18 C1.42 18 -7.16 18 -16 18 C-13.21091615 24.16656173 -13.21091615 24.16656173 -8 27 C-3.97096297 27.43168254 -1.80886644 27.48908203 1.6875 25.375 C2.450625 24.92125 3.21375 24.4675 4 24 C6.3125 24.8125 6.3125 24.8125 8 26 C7 29 7 29 4.0625 30.6875 C-1.14657232 32.69839445 -6.70612727 33.0520354 -12.0546875 31.34375 C-15.8185609 29.46989028 -18.46378232 26.89336581 -20.33984375 23.125 C-22.11021158 17.42630118 -21.91213801 11.92952271 -19.375 6.5625 C-13.482309 0.20459656 -8.49219682 -1.22763501 0 0 Z " fill="#101010" transform="translate(597,624)"/>
<path d="M0 0 C3.815625 -0.061875 7.63125 -0.12375 11.5625 -0.1875 C13.34636108 -0.22846802 13.34636108 -0.22846802 15.16625977 -0.27026367 C22.78472995 -0.32990823 27.82593357 0.25876081 33.75 5.375 C37.85307696 10.16192312 39.69228038 13.9228038 40.3125 20.125 C39.78353733 26.68413716 37.77552782 32.01309982 33.375 36.9375 C22.45606922 43.61017992 13.67895098 42 0 42 C0 28.14 0 14.28 0 0 Z M5 4 C5 14.89 5 25.78 5 37 C9.2384375 37.12375 9.2384375 37.12375 13.5625 37.25 C14.8764978 37.30462402 14.8764978 37.30462402 16.21704102 37.36035156 C22.00794281 37.44144381 25.24236528 36.31942116 30 33 C33.87847692 29.12152308 34.31322031 25.79610812 34.5 20.5 C34.30717934 15.20345748 33.93482158 11.83645104 30 8 C22.39941826 2.33682145 14.11039305 3.71530022 5 4 Z " fill="#111111" transform="translate(673,614)"/>
<path d="M0 0 C4.32280687 2.19819328 6.32587851 4.77841678 7.8359375 9.30859375 C7.8359375 11.61859375 7.8359375 13.92859375 7.8359375 16.30859375 C-0.7440625 16.30859375 -9.3240625 16.30859375 -18.1640625 16.30859375 C-17.1740625 18.28859375 -16.1840625 20.26859375 -15.1640625 22.30859375 C-15.1640625 22.96859375 -15.1640625 23.62859375 -15.1640625 24.30859375 C-11.02079226 26.31745205 -7.74867894 26.71075309 -3.1640625 26.30859375 C-1.14880081 25.33971794 0.85427716 24.34446165 2.8359375 23.30859375 C3.8259375 23.63859375 4.8159375 23.96859375 5.8359375 24.30859375 C5.7109375 26.12109375 5.7109375 26.12109375 4.8359375 28.30859375 C-0.28153739 32.07936472 -6.0592059 32.14437769 -12.1640625 31.30859375 C-15.6640625 29.49609375 -15.6640625 29.49609375 -18.1640625 27.30859375 C-18.7415625 26.85484375 -19.3190625 26.40109375 -19.9140625 25.93359375 C-22.92305777 22.0218999 -23.67741428 17.25636344 -23.546875 12.3984375 C-22.64060579 7.45094744 -19.62588608 3.6844277 -16.0390625 0.30859375 C-10.85083589 -1.49600681 -5.2642119 -1.6818872 0 0 Z " fill="#090909" transform="translate(808.1640625,624.69140625)"/>
<path d="M0 0 C2.63978907 2.12649675 3.90317388 3.69353425 5.25 6.8125 C5.78715295 11.82592749 5.37527558 14.82507943 2.25 18.8125 C-0.60049332 21.74217369 -2.1129947 22.71984468 -6.1875 23.3125 C-10.98094905 22.63973522 -14.11491589 20.89351614 -17.125 17.0625 C-18.57399408 11.84612133 -18.45053657 8.16353481 -16 3.4375 C-11.56603474 -1.73545947 -6.43920859 -2.78056734 0 0 Z " fill="#F7F7F7" transform="translate(637.75,629.1875)"/>
<path d="M0 0 C3.08193978 1.6281946 5.26420667 3.03009062 7.375 5.8125 C8.65125865 10.27940528 8.39873543 13.90872409 6.8125 18.25 C4.7512539 21.37740787 3.45893025 22.58498308 0 24 C-3.5656518 24.5942753 -5.85328418 24.72352308 -8.96875 22.7578125 C-11.98133013 20.27613789 -13.74467427 18.76597718 -15 15 C-15.36945059 10.01241703 -15.18227193 6.95040654 -12 3 C-8.06805815 -0.1673976 -4.97806095 -0.61134082 0 0 Z " fill="#F7F7F7" transform="translate(898,628)"/>
<path d="M0 0 C3.40920514 2.411389 5.69634878 5.08019755 7.5625 8.8125 C8.09089495 15.03130209 8.28743456 20.54621321 4.5625 25.8125 C-0.58259661 30.57171437 -4.82517213 31.22837119 -11.640625 31.15625 C-15.94561418 30.62714519 -18.5131742 28.94511112 -21.4375 25.8125 C-25.22208232 20.68500138 -25.25192779 14.95273647 -24.4375 8.8125 C-19.5808941 -1.4610894 -10.18771467 -3.51939234 0 0 Z M-18.4375 7.8125 C-20.16339785 11.26429569 -19.79793965 15.03116039 -19.4375 18.8125 C-18.13724145 21.96049439 -16.84856419 23.4497963 -14.3125 25.6875 C-10.13182742 27.32341536 -6.70434377 27.17048283 -2.4375 25.8125 C0.98438142 23.08896173 2.20400457 21.64053041 3.03515625 17.40234375 C3.29484041 12.98771295 3.04917612 9.78087566 0.25 6.25 C-2.88952717 3.40252187 -4.57907552 2.90968013 -8.75 2.4375 C-13.64051701 2.93484071 -15.00834492 4.38334492 -18.4375 7.8125 Z " fill="#0A0A0A" transform="translate(862.4375,625.1875)"/>
<path d="M0 0 C1.65 0 3.3 0 5 0 C9.05500244 7.85917999 12.71043026 15.79063128 16 24 C18.20237932 21.79762068 18.93527242 20.10563567 20.12890625 17.24609375 C20.52400391 16.30958984 20.91910156 15.37308594 21.32617188 14.40820312 C21.73416016 13.42787109 22.14214844 12.44753906 22.5625 11.4375 C23.37419531 9.49781496 24.18789016 7.55896503 25.00390625 5.62109375 C25.36299072 4.7592749 25.7220752 3.89745605 26.09204102 3.00952148 C27 1 27 1 28 0 C29.66617115 -0.04063832 31.33388095 -0.042721 33 0 C30.16914033 7.70320467 27.07850074 15.25039693 23.75 22.75 C23.39679687 23.54841309 23.04359375 24.34682617 22.6796875 25.16943359 C20.12832851 30.87167149 20.12832851 30.87167149 19 32 C17.33382885 32.04063832 15.66611905 32.042721 14 32 C10.25790807 24.08359883 6.58037354 16.143964 3.0625 8.125 C2.60315063 7.08182617 2.60315063 7.08182617 2.13452148 6.01757812 C0 1.12394681 0 1.12394681 0 0 Z " fill="#0B0B0B" transform="translate(751,624)"/>
<path d="M0 0 C3 1.5 3 1.5 5 4 C5.70710353 6.82841411 5.70710353 9.17158589 5 12 C2.88134472 14.6483191 1.37782575 15.73807669 -1.97265625 16.375 C-5.32792404 16.57568891 -7.61620508 16.23027695 -10.5 14.5 C-12.62153384 10.96411027 -12.791013 8.02098277 -12 4 C-9.18063993 -0.69893346 -5.07930638 -0.96557111 0 0 Z " fill="#080808" transform="translate(863,470)"/>
<path d="M0 0 C2.5 1.5 2.5 1.5 4 4 C4.791013 8.02098277 4.62153384 10.96411027 2.5 14.5 C-0.98597004 16.59158203 -4.10215706 16.8876276 -8 16 C-11.44150865 13.56226471 -12.762119 12.14182881 -13.625 8 C-12.01791249 0.28597997 -6.91401994 -0.98771713 0 0 Z " fill="#060606" transform="translate(735,470)"/>
<path d="M0 0 C1.65 0 3.3 0 5 0 C5.33 0.99 5.66 1.98 6 3 C6.70125 2.505 7.4025 2.01 8.125 1.5 C11.37119719 -0.1936681 13.39340156 -0.25162315 17 0 C17 1.32 17 2.64 17 4 C15.01432292 4.61848958 13.02864583 5.23697917 11.04296875 5.85546875 C8.08394134 7.51320303 7.32969039 8.85414712 6 12 C5.51075401 15.43354382 5.39819125 18.84812535 5.3125 22.3125 C5.27833984 23.24384766 5.24417969 24.17519531 5.20898438 25.13476562 C5.12684059 27.42305672 5.05758338 29.71098104 5 32 C3.35 32 1.7 32 0 32 C0 21.44 0 10.88 0 0 Z " fill="#131313" transform="translate(955,624)"/>
<path d="M0 0 C1.32 0 2.64 0 4 0 C4 14.85 4 29.7 4 45 C2.68 45 1.36 45 0 45 C0 30.15 0 15.3 0 0 Z " fill="#000000" transform="translate(825,611)"/>
<path d="M0 0 C4.16675387 1.79928008 6.02342579 3.94282135 8 8 C8 8.66 8 9.32 8 10 C0.74 10 -6.52 10 -14 10 C-13.02646068 5.13230342 -12.56543374 3.85264987 -8.74609375 0.94921875 C-5.7241809 -0.69356609 -3.33320407 -0.48482968 0 0 Z " fill="#F0F0F0" transform="translate(804,628)"/>
<path d="M0 0 C3.5386994 1.65139305 4.81070153 2.71605229 7 6 C7 7.32 7 8.64 7 10 C0.07 10 -6.86 10 -14 10 C-13.02646068 5.13230342 -12.56543374 3.85264987 -8.74609375 0.94921875 C-5.7241809 -0.69356609 -3.33320407 -0.48482968 0 0 Z " fill="#F3F3F3" transform="translate(935,628)"/>
<path d="M0 0 C3.5386994 1.65139305 4.81070153 2.71605229 7 6 C7 7.32 7 8.64 7 10 C0.07 10 -6.86 10 -14 10 C-13.02646068 5.13230342 -12.56543374 3.85264987 -8.74609375 0.94921875 C-5.7241809 -0.69356609 -3.33320407 -0.48482968 0 0 Z " fill="#F3F3F3" transform="translate(737,628)"/>
<path d="M0 0 C2.60155609 1.39327782 3.92126363 2.77278246 6 5 C6.33 6.65 6.66 8.3 7 10 C0.07 10 -6.86 10 -14 10 C-12.99282785 4.96413924 -12.65953092 4.10505654 -9 1 C-5.85088521 -0.57455739 -3.47991184 -0.34799118 0 0 Z " fill="#F3F3F3" transform="translate(595,628)"/>
<path d="M0 0 C0.99 0 1.98 0 3 0 C3 0.99 3 1.98 3 3 C-0.63 3 -4.26 3 -8 3 C-8 2.67 -8 2.34 -8 2 C-5.36 2 -2.72 2 0 2 C0 1.34 0 0.68 0 0 Z " fill="#B5B5B5" transform="translate(527,92)"/>
</svg>
