<svg version="1.1" id="Layer_1" xmlns="http://www.w3.org/2000/svg" xmlns:xlink="http://www.w3.org/1999/xlink" x="0px" y="0px"
	 width="100%" viewBox="0 0 1024 704" enable-background="new 0 0 1024 704" xml:space="preserve">
<path fill="#000000" opacity="1.000000" stroke="none" 
	d="
M349.011230,307.873413 
	C338.921906,285.321411 333.646851,262.146912 334.729034,237.738113 
	C336.244476,203.556488 347.584808,172.919479 369.265015,146.463043 
	C393.196350,117.259476 424.074585,99.423309 461.191376,92.454185 
	C519.650085,81.477837 581.832520,107.716469 614.990051,157.081284 
	C635.052856,186.950714 643.708313,219.935287 641.060425,255.556320 
	C636.075867,322.613220 587.558716,377.791199 521.225342,392.891846 
	C451.816559,408.692596 378.580780,372.651825 349.011230,307.873413 
z"/>
<path fill="#000000" opacity="1.000000" stroke="none" 
	d="
M302.164368,527.755127 
	C300.963593,535.571228 307.799225,545.915771 316.727570,549.628723 
	C329.536316,554.955444 341.928070,554.103516 352.829987,545.058044 
	C356.829498,541.739563 358.162323,544.561584 360.411987,546.678711 
	C363.031830,549.144165 363.106842,551.187805 360.313934,553.679138 
	C348.436798,564.273743 334.484650,566.109497 319.640717,562.990112 
	C303.728271,559.646179 291.358093,546.684326 288.957123,531.100342 
	C286.211182,513.277527 290.498169,497.663879 306.199341,487.397491 
	C319.660004,478.596130 334.441711,478.522583 348.480560,486.004181 
	C362.446838,493.447083 367.606934,506.519165 368.302490,521.768433 
	C368.509552,526.308105 365.953491,526.984985 362.353485,526.979248 
	C344.535675,526.950989 326.717743,526.964478 308.899963,527.012939 
	C306.754700,527.018738 304.610229,527.325684 302.164368,527.755127 
M345.534210,497.948212 
	C330.216705,486.149109 308.460907,492.495117 302.286255,510.563324 
	C300.464905,515.893066 301.020599,516.765686 306.529968,516.777771 
	C320.982208,516.809570 335.434662,516.808838 349.886810,516.756836 
	C351.641602,516.750488 353.557465,517.235901 355.094452,515.889771 
	C354.956116,509.350525 351.850311,503.336700 345.534210,497.948212 
z"/>
<path fill="#000000" opacity="1.000000" stroke="none" 
	d="
M554.440674,470.425262 
	C533.872314,480.430939 525.253662,503.538330 532.490051,523.835205 
	C540.035583,544.999023 562.242859,556.403625 584.552856,551.351685 
	C591.522461,549.773438 597.865662,547.076294 603.141113,542.200562 
	C607.866455,537.833191 609.320862,543.230103 611.802246,545.116089 
	C614.976379,547.528564 613.211914,549.679688 610.961304,551.576782 
	C598.804626,561.824097 584.521545,565.072632 569.024902,564.265259 
	C543.618225,562.941772 522.904907,545.715210 518.547791,520.763123 
	C510.723785,475.956299 545.583130,450.758850 580.226929,454.408691 
	C591.241150,455.569061 601.409363,458.716766 609.930115,466.045593 
	C611.460083,467.361511 614.201965,468.726929 613.133850,471.130310 
	C611.865967,473.982941 609.316895,476.182251 606.542969,477.734528 
	C605.177307,478.498779 604.191162,476.913116 603.178650,476.120026 
	C588.224609,464.407471 571.988098,463.324188 554.440674,470.425262 
z"/>
<path fill="#000000" opacity="1.000000" stroke="none" 
	d="
M422.003815,564.293091 
	C397.564697,563.973328 379.205963,545.608276 380.542450,519.063843 
	C381.614899,497.763031 399.275604,480.924988 421.968811,480.891205 
	C446.256470,480.855072 463.545990,497.582062 463.989746,521.544983 
	C464.446381,546.201904 447.542877,563.605591 422.003815,564.293091 
M418.969299,492.307098 
	C401.920288,495.085358 392.305359,507.398895 393.319489,525.156006 
	C394.036102,537.704285 402.151886,548.324890 413.486847,551.547729 
	C425.713440,555.024231 439.064819,550.928589 445.503479,541.191223 
	C452.790894,530.170288 453.481873,518.442322 447.253906,506.743042 
	C441.475525,495.888458 431.836792,491.692627 418.969299,492.307098 
z"/>
<path fill="#000000" opacity="1.000000" stroke="none" 
	d="
M745.294556,492.731445 
	C750.278931,499.165985 755.042175,505.321472 760.298950,512.114807 
	C767.087524,503.395721 773.410095,495.301880 779.702454,487.184662 
	C784.304016,481.248566 788.445374,480.100464 796.154114,482.727020 
	C796.749146,484.520905 795.288208,485.420959 794.417236,486.550018 
	C786.481079,496.838806 778.640198,507.204529 770.515869,517.342896 
	C767.970459,520.519348 767.964355,522.594849 770.627075,525.838928 
	C779.291809,536.395203 787.545715,547.289124 795.930786,558.073975 
	C796.918274,559.343994 798.243225,560.483337 798.291199,562.283936 
	C790.661316,565.046814 785.574158,563.758179 780.987915,557.808899 
	C775.192200,550.290588 769.510315,542.684387 763.713440,535.166870 
	C762.738403,533.902466 762.075684,532.213440 759.611328,531.642883 
	C753.100098,540.138611 746.418823,548.806824 739.793396,557.517578 
	C735.033264,563.776001 730.997070,564.981323 722.638672,562.448730 
	C722.320251,560.517273 723.827759,559.470520 724.800293,558.206543 
	C733.334839,547.114990 741.781433,535.952026 750.530884,525.031921 
	C752.849731,522.137878 752.376831,520.319946 750.306091,517.728455 
	C742.401733,507.836578 734.664795,497.810211 726.923218,487.789459 
	C725.764160,486.289215 723.933777,485.043823 724.252197,482.741364 
	C732.242249,480.056061 736.437683,481.212036 741.094238,487.315094 
	C742.408081,489.037079 743.746338,490.740479 745.294556,492.731445 
z"/>
<path fill="#000000" opacity="1.000000" stroke="none" 
	d="
M241.001465,551.782898 
	C253.331253,551.792114 265.162903,551.909180 276.990845,551.748901 
	C281.156128,551.692566 283.061768,552.942139 283.012695,557.435547 
	C282.964020,561.890442 281.498169,563.508850 276.858032,563.458923 
	C256.365753,563.238647 235.868912,563.261047 215.375885,563.440674 
	C211.012390,563.478943 209.612411,562.088745 209.631729,557.706299 
	C209.774811,525.215454 209.777466,492.723297 209.611755,460.232635 
	C209.587784,455.533875 211.648514,454.629913 215.666031,454.752777 
	C219.682602,454.875641 223.277847,454.443237 223.237198,460.421600 
	C223.045761,488.579590 223.119339,516.739380 223.109634,544.898499 
	C223.107239,551.827820 223.126633,551.833984 230.004730,551.829712 
	C233.503784,551.827515 237.002823,551.798523 241.001465,551.782898 
z"/>
<path fill="#000000" opacity="1.000000" stroke="none" 
	d="
M645.334473,554.945679 
	C645.297607,563.406555 645.285400,563.136963 638.540222,563.442993 
	C633.813782,563.657532 632.616455,561.827332 632.649658,557.365417 
	C632.820618,534.372559 632.777588,511.377350 632.659912,488.383759 
	C632.638489,484.204254 632.916931,481.291595 638.407654,481.605438 
	C644.729309,481.966827 644.971741,481.840729 645.143494,488.466888 
	C645.173523,489.623932 645.147766,490.782410 645.147766,492.148560 
	C647.161621,492.120514 647.798523,490.583954 648.756165,489.669159 
	C655.170654,483.541840 663.156372,481.653534 671.626892,481.048889 
	C674.289795,480.858795 675.324646,482.548035 675.055603,484.823547 
	C674.705811,487.781281 676.862549,491.950104 671.805664,492.961212 
	C669.533508,493.415527 667.130615,493.232300 664.868652,493.718292 
	C652.563904,496.362061 645.614990,506.182617 645.387207,521.463135 
	C645.223267,532.458008 645.342041,543.457153 645.334473,554.945679 
z"/>
<path fill="#C51F5D" opacity="1.000000" stroke="none" 
	d="
M815.648254,494.016663 
	C815.653687,491.524017 815.861328,489.503235 815.623779,487.536224 
	C815.052612,482.805511 817.220337,481.458740 821.661072,481.648895 
	C827.768860,481.910431 828.093506,481.947784 828.099487,488.214172 
	C828.121643,511.171814 828.120300,534.129578 828.064758,557.087158 
	C828.059814,559.138367 828.889709,561.971375 826.402710,562.864441 
	C823.457336,563.922119 820.054565,563.947449 817.112488,562.787109 
	C814.885437,561.908691 815.682617,559.289368 815.678040,557.397034 
	C815.627075,536.435791 815.647095,515.474365 815.648254,494.016663 
z"/>
<path fill="#C51F5D" opacity="1.000000" stroke="none" 
	d="
M692.795837,512.000000 
	C692.791687,503.188538 692.964600,494.871796 692.716187,486.567657 
	C692.574951,481.845398 695.247742,481.591766 698.762268,481.672607 
	C702.187012,481.751404 705.400757,481.277588 705.366333,486.521454 
	C705.208313,510.623688 705.196167,534.728088 705.355896,558.830200 
	C705.392883,564.406006 701.728333,563.129822 698.594788,563.357483 
	C694.961304,563.621460 692.640686,562.989319 692.705933,558.378174 
	C692.922180,543.088135 692.793091,527.793091 692.795837,512.000000 
z"/>
<path fill="#C51F5D" opacity="1.000000" stroke="none" 
	d="
M509.717621,624.743896 
	C507.211456,628.335327 503.976990,628.674072 502.638550,625.094788 
	C497.938507,612.526062 493.896667,599.711121 489.569031,586.883179 
	C493.677521,584.785339 495.510529,586.138184 496.689728,589.687500 
	C499.662079,598.633850 502.808868,607.522278 506.306305,617.651917 
	C509.696320,608.100708 512.612976,599.688904 515.691284,591.336670 
	C516.540161,589.033569 516.429504,585.653076 520.285645,585.808899 
	C523.959595,585.957397 523.988708,589.237000 524.815552,591.564087 
	C527.796082,599.952271 530.568970,608.414246 534.506226,616.810425 
	C537.176147,608.833740 539.835388,600.853516 542.524170,592.883240 
	C543.108398,591.151611 543.799866,589.456299 544.439636,587.743347 
	C545.190063,585.734131 546.803284,585.501587 548.526184,585.993469 
	C550.614868,586.589905 550.123413,588.219238 549.638489,589.668762 
	C545.786865,601.180359 541.914185,612.684875 538.038513,624.188477 
	C537.410400,626.052856 536.413208,627.299255 534.126892,627.322083 
	C531.606689,627.347168 530.612305,625.916138 529.906189,623.881592 
	C526.807312,614.953247 523.686890,606.032288 520.040344,595.578064 
	C516.329529,606.098267 513.106689,615.234985 509.717621,624.743896 
z"/>
<path fill="#C51F5D" opacity="1.000000" stroke="none" 
	d="
M642.829712,620.864929 
	C642.836060,610.569397 642.943542,600.754639 642.798218,590.943542 
	C642.742065,587.150208 644.008545,585.398010 647.990906,585.683777 
	C653.929016,586.109741 659.879822,585.037964 665.852051,586.447998 
	C676.547119,588.973389 682.844910,596.864136 682.236877,607.671143 
	C681.646118,618.172791 674.195435,626.210938 663.648743,627.112183 
	C658.032654,627.592041 652.347290,627.238220 646.693848,627.310547 
	C642.192566,627.368164 642.956665,624.085571 642.829712,620.864929 
M649.319580,619.897034 
	C653.001465,623.945068 657.700989,621.727112 661.873718,621.617737 
	C669.752563,621.411255 675.048157,616.132507 676.204102,608.291199 
	C677.256042,601.155518 673.129333,594.756226 665.821472,592.115906 
	C661.780945,590.655945 657.593811,591.478271 653.476807,591.205872 
	C650.252686,590.992493 649.015259,592.409790 649.068909,595.592773 
	C649.200439,603.399658 649.153625,611.209534 649.319580,619.897034 
z"/>
<path fill="#C51F5D" opacity="1.000000" stroke="none" 
	d="
M593.461182,596.033142 
	C594.069458,599.502014 595.799194,597.842590 597.152588,597.224487 
	C603.697327,594.235779 609.983032,594.741272 615.254211,599.591248 
	C620.376038,604.303894 621.312622,610.485413 619.279968,617.055908 
	C616.545837,625.893921 606.349976,630.179932 597.728027,626.156555 
	C596.549988,625.606812 595.463989,624.859863 594.106506,624.071289 
	C593.203918,626.050171 592.279358,627.953003 589.754395,627.056274 
	C587.717529,626.332886 587.881897,624.485046 587.876160,622.861511 
	C587.835083,611.212891 587.841797,599.564026 587.840454,587.915283 
	C587.840149,585.622314 587.998169,583.393555 591.174683,583.560486 
	C594.093018,583.713928 593.321289,585.988098 593.381226,587.671753 
	C593.475769,590.331360 593.428772,592.996033 593.461182,596.033142 
M598.185425,620.356506 
	C599.072510,620.798767 599.926514,621.332275 600.852234,621.667847 
	C605.568054,623.377258 609.336975,621.802185 612.201721,617.995911 
	C615.320190,613.852356 615.037720,608.155701 611.762573,604.203552 
	C608.992615,600.860962 604.065063,599.717773 600.037659,601.483337 
	C593.161377,604.497864 591.971130,613.463684 598.185425,620.356506 
z"/>
<path fill="#C51F5D" opacity="1.000000" stroke="none" 
	d="
M846.759766,597.988159 
	C860.138916,591.638428 872.374390,598.942139 871.591064,612.528442 
	C870.935852,623.894043 860.470459,630.565918 849.778015,626.423889 
	C848.574585,625.957703 847.401611,625.412903 845.217407,624.477539 
	C845.217407,628.354065 845.231567,631.605103 845.211914,634.855896 
	C845.200806,636.696594 844.692871,638.211792 842.461731,638.216614 
	C840.240540,638.221436 839.680237,636.718811 839.678162,634.876831 
	C839.664734,623.044312 839.664917,611.211792 839.691772,599.379333 
	C839.694763,598.060303 839.705811,596.651367 841.269165,596.024353 
	C843.640259,595.073303 844.785706,597.211792 846.759766,597.988159 
M864.510071,616.785950 
	C866.555725,612.316833 866.318298,608.001343 863.115112,604.218140 
	C860.744568,601.418274 857.571594,600.025513 853.800049,600.815979 
	C848.949280,601.832642 845.813782,605.533813 845.350342,610.622009 
	C844.922241,615.322083 847.528870,619.827454 851.630859,621.477600 
	C856.538330,623.451782 860.277649,622.245789 864.510071,616.785950 
z"/>
<path fill="#C51F5D" opacity="1.000000" stroke="none" 
	d="
M895.026550,621.923828 
	C896.592896,621.263977 897.880737,620.843872 898.980347,620.132812 
	C900.509705,619.143860 901.873169,618.379639 903.250793,620.283752 
	C904.833984,622.472107 903.233826,623.668823 901.778503,624.787598 
	C893.341858,631.272766 879.473328,626.831360 876.235535,616.638000 
	C873.542358,608.159241 877.922424,598.824463 885.841858,596.164978 
	C894.079163,593.398743 902.859009,597.724670 905.551575,605.876160 
	C907.589172,612.044495 906.368347,613.680176 899.961853,613.937622 
	C894.020447,614.176331 888.058777,613.107483 882.083008,613.996765 
	C883.418457,620.279968 887.803040,623.001953 895.026550,621.923828 
M887.104614,601.453125 
	C884.426086,602.922852 882.323059,604.813843 881.834900,608.340759 
	C888.125427,608.340759 894.037659,608.340759 900.111877,608.340759 
	C897.995300,601.799011 894.207520,599.753174 887.104614,601.453125 
z"/>
<path fill="#C51F5D" opacity="1.000000" stroke="none" 
	d="
M559.587891,619.580688 
	C564.377319,623.091003 569.036865,623.388977 573.730103,620.277954 
	C575.442627,619.142700 576.960083,618.428833 578.409363,620.479126 
	C579.814758,622.467468 578.221313,623.551025 576.974609,624.582275 
	C571.721252,628.927734 561.084229,628.399597 555.678711,623.582031 
	C550.028320,618.546204 548.780884,609.207703 552.870972,602.563538 
	C556.791382,596.195068 564.862915,593.737793 572.129639,596.636169 
	C575.551331,598.001038 577.949524,600.372375 579.523132,603.653687 
	C583.173340,611.264709 581.878113,613.496521 573.659180,613.585205 
	C568.206604,613.644104 562.752930,613.596313 557.379333,613.596313 
	C556.552368,616.463745 558.109863,617.838684 559.587891,619.580688 
M574.527344,605.766663 
	C571.989868,602.080688 568.700256,599.701416 564.039062,600.778198 
	C560.286255,601.645142 557.712952,603.998413 556.687805,608.775513 
	C562.543030,608.775513 567.948975,608.810913 573.353943,608.752991 
	C574.881042,608.736633 575.382935,607.832825 574.527344,605.766663 
z"/>
<path fill="#C51F5D" opacity="1.000000" stroke="none" 
	d="
M774.000732,626.340332 
	C766.628479,628.491577 759.981506,628.152344 754.773987,622.471802 
	C750.364319,617.661438 749.662964,611.776550 751.616089,605.656982 
	C753.880493,598.561890 760.364685,594.835876 768.569641,595.700317 
	C775.158752,596.394531 780.254089,601.664917 781.237000,608.507263 
	C781.791687,612.368774 780.708618,613.957214 776.491455,613.732666 
	C770.091003,613.391968 763.659119,613.643555 757.174011,613.643555 
	C758.353088,620.926636 764.625671,624.251648 771.401489,621.547302 
	C772.776367,620.998535 774.024231,620.130066 775.327271,619.403015 
	C776.587341,618.700012 777.574707,619.196472 778.398132,620.156616 
	C779.283630,621.189026 779.219421,622.250000 778.366577,623.307617 
	C777.293091,624.638916 775.899109,625.511902 774.000732,626.340332 
M762.838013,608.883911 
	C766.886292,608.571960 771.044250,609.605164 775.072571,608.206055 
	C773.464355,602.874817 769.788879,600.076904 765.338440,600.555847 
	C760.739563,601.050842 757.995728,603.820740 757.543457,608.666382 
	C759.025757,608.739380 760.497620,608.811829 762.838013,608.883911 
z"/>
<path fill="#C51F5D" opacity="1.000000" stroke="none" 
	d="
M698.027039,595.815918 
	C708.922241,595.143738 714.984314,599.045532 716.821594,607.604675 
	C717.867065,612.475159 717.020813,613.213379 712.063416,613.552551 
	C705.793091,613.981445 699.491150,612.696533 693.241455,613.860596 
	C693.899292,620.515625 700.096924,624.094543 706.663757,621.728088 
	C707.900146,621.282593 709.117126,620.678162 710.200256,619.938171 
	C711.672058,618.932434 712.930420,618.798401 714.090393,620.291138 
	C715.511108,622.119568 714.449646,623.452820 713.036194,624.488281 
	C707.882935,628.263306 702.138672,628.324158 696.406311,626.430115 
	C690.895142,624.609131 687.686218,620.418152 686.799866,614.730042 
	C685.365356,605.524597 688.934875,599.495361 698.027039,595.815918 
M706.507202,601.857422 
	C699.515381,599.125916 694.454468,601.529541 693.149353,608.324463 
	C699.118225,608.324463 705.047729,608.324463 711.235779,608.324463 
	C710.531250,605.325867 709.123352,603.581909 706.507202,601.857422 
z"/>
<path fill="#C51F5D" opacity="1.000000" stroke="none" 
	d="
M814.622925,595.630249 
	C826.741272,595.367310 833.917358,602.467224 832.755798,613.146240 
	C831.765625,622.249146 825.984680,627.387634 816.731384,627.389771 
	C808.227051,627.391724 801.722168,621.917786 800.811707,613.993042 
	C799.706299,604.371704 804.599731,597.688477 814.622925,595.630249 
M806.699585,613.768555 
	C809.099243,620.032837 812.965393,622.979431 817.883179,622.292297 
	C822.950073,621.584229 826.462402,617.718933 826.767395,612.515076 
	C827.126099,606.395813 824.405823,602.360657 818.949646,600.918823 
	C812.205872,599.136780 806.627808,604.567871 806.699585,613.768555 
z"/>
<path fill="#C51F5D" opacity="1.000000" stroke="none" 
	d="
M736.349243,626.802612 
	C734.180908,627.326843 731.963623,627.909546 731.029968,625.922913 
	C726.524780,616.337158 722.243652,606.646240 717.846558,596.911743 
	C721.880859,594.712280 723.762695,596.168579 725.107239,599.222778 
	C727.850464,605.454285 730.652161,611.660095 733.900269,618.929443 
	C737.667419,613.150391 739.448792,607.507446 741.981750,602.260437 
	C742.848938,600.464050 743.571777,598.545349 744.737610,596.959839 
	C746.034668,595.195740 747.881653,595.496155 750.264954,596.902039 
	C745.879150,606.838074 741.942200,617.003784 736.349243,626.802612 
z"/>
<path fill="#C51F5D" opacity="1.000000" stroke="none" 
	d="
M787.974243,589.329529 
	C788.305298,586.733215 787.377502,583.708252 790.994141,583.667480 
	C794.586060,583.626953 794.073730,586.583374 794.088013,588.781372 
	C794.160583,599.936279 794.149292,611.092163 794.082153,622.247192 
	C794.069824,624.295471 794.558533,626.980774 791.322144,627.159546 
	C787.719421,627.358582 788.039734,624.509827 788.024963,622.252869 
	C787.954041,611.430847 787.979004,600.608093 787.974243,589.329529 
z"/>
<path fill="#C51F5D" opacity="1.000000" stroke="none" 
	d="
M912.822632,615.970215 
	C912.830444,610.660278 912.793152,605.845093 912.872925,601.031982 
	C912.902100,599.271362 912.415710,597.090271 914.438782,596.136719 
	C916.539978,595.146240 918.236572,596.190125 919.045532,598.247070 
	C921.748352,597.165649 923.828674,595.661743 926.453125,595.706482 
	C928.059570,595.733765 929.502930,595.909607 929.738892,597.896729 
	C929.922424,599.441650 929.187683,600.683777 927.739746,600.898560 
	C919.126038,602.176147 918.908264,608.534668 918.919800,615.117126 
	C918.925354,618.267517 918.885315,621.421997 918.722473,624.567139 
	C918.634155,626.271606 917.676575,627.279602 915.800293,627.217163 
	C913.956543,627.155701 913.044556,626.151184 912.968994,624.429626 
	C912.852722,621.778015 912.865662,619.120728 912.822632,615.970215 
z"/>
<path fill="#C51F5D" opacity="1.000000" stroke="none" 
	d="
M702.321655,464.972107 
	C699.286987,465.357513 696.658875,465.728180 694.233459,464.130035 
	C690.474243,461.653076 689.335571,456.041321 691.882019,452.263367 
	C694.509583,448.365082 700.852173,447.455383 704.724304,450.421478 
	C708.086792,452.997162 708.727905,459.067261 705.859253,462.484650 
	C705.039917,463.460724 703.779358,464.066528 702.321655,464.972107 
z"/>
<path fill="#C51F5D" opacity="1.000000" stroke="none" 
	d="
M827.980103,462.997070 
	C823.940674,466.261993 819.980835,466.376129 816.317505,463.450562 
	C812.873657,460.700226 812.588989,456.766022 814.325195,453.040253 
	C816.089783,449.253632 819.668396,448.265015 823.604431,448.823761 
	C830.088623,449.744232 832.234802,456.220245 827.980103,462.997070 
z"/>
</svg>